<svg width="141" height="24" fill="none" xmlns="http://www.w3.org/2000/svg"><g clip-path="url(#a)" fill="#fff"><path d="M12 2.16c3.206 0 3.586.015 4.847.071 1.172.052 1.805.249 2.226.413a3.71 3.71 0 011.379.895c.421.422.68.82.895 1.378.164.422.36 1.06.412 2.227.057 1.265.07 1.645.07 4.847 0 3.206-.013 3.586-.07 4.846-.051 1.172-.248 1.805-.412 2.227-.216.558-.478.961-.895 1.378a3.69 3.69 0 01-1.379.895c-.421.165-1.059.361-2.226.413-1.266.056-1.645.07-4.847.07-3.206 0-3.586-.014-4.847-.07-1.172-.052-1.805-.248-2.226-.413a3.71 3.71 0 01-1.379-.895 3.691 3.691 0 01-.895-1.378c-.164-.422-.36-1.06-.412-2.227-.057-1.265-.07-1.645-.07-4.846 0-3.207.013-3.586.07-4.847.051-1.172.248-1.805.412-2.227.216-.558.478-.96.895-1.378.422-.422.82-.68 1.379-.895.421-.164 1.059-.361 2.226-.413 1.261-.056 1.64-.07 4.847-.07zM12 0C8.742 0 8.334.014 7.055.07 5.78.127 4.903.333 4.144.628a5.857 5.857 0 00-2.128 1.388A5.88 5.88 0 00.628 4.139C.333 4.903.127 5.775.07 7.05.014 8.334 0 8.742 0 12s.014 3.666.07 4.945c.057 1.275.263 2.152.558 2.911.31.792.717 1.463 1.388 2.128a5.866 5.866 0 002.123 1.383c.764.296 1.636.502 2.911.558 1.28.056 1.688.07 4.945.07 3.258 0 3.666-.014 4.946-.07 1.275-.056 2.151-.262 2.91-.558a5.866 5.866 0 002.124-1.383 5.866 5.866 0 001.383-2.123c.295-.764.501-1.636.558-2.911.056-1.28.07-1.688.07-4.945 0-3.258-.014-3.666-.07-4.946-.057-1.275-.263-2.151-.558-2.91a5.62 5.62 0 00-1.374-2.133A5.866 5.866 0 0019.861.633C19.097.338 18.225.13 16.95.075 15.666.015 15.258 0 12 0z"/><path d="M12 5.836A6.166 6.166 0 005.836 12 6.166 6.166 0 0012 18.164 6.166 6.166 0 0018.164 12 6.166 6.166 0 0012 5.836zm0 10.162A3.999 3.999 0 1112.001 8 3.999 3.999 0 0112 15.998zM19.847 5.592a1.44 1.44 0 11-2.879 0 1.44 1.44 0 012.879 0z"/></g><g clip-path="url(#b)"><path d="M61.223 0H40.772C39.792 0 39 .773 39 1.73v20.536c0 .956.792 1.734 1.772 1.734h20.451c.98 0 1.777-.778 1.777-1.73V1.73C63 .773 62.203 0 61.223 0zM46.12 20.452h-3.562V8.995h3.562v11.457zM44.34 7.434a2.064 2.064 0 110-4.125 2.063 2.063 0 010 4.125zm15.112 13.018h-3.558v-5.57c0-1.326-.024-3.037-1.852-3.037-1.851 0-2.133 1.449-2.133 2.944v5.663h-3.553V8.995h3.413v1.566h.047c.473-.9 1.636-1.852 3.365-1.852 3.605 0 4.27 2.372 4.27 5.457v6.286z" fill="#fff"/></g><path d="M96.326 1.904H99.7l-7.37 8.423L101 21.79h-6.789l-5.317-6.952-6.084 6.952h-3.376l7.883-9.01L79 1.904h6.961l4.806 6.354 5.56-6.354zM95.142 19.77h1.87L84.945 3.817H82.94L95.141 19.77zM140.761 7.2s-.234-1.655-.956-2.381c-.914-.956-1.936-.961-2.405-1.017-3.356-.244-8.395-.244-8.395-.244h-.01s-5.039 0-8.395.244c-.469.056-1.491.06-2.405 1.017-.722.726-.951 2.381-.951 2.381S117 9.145 117 11.086v1.819c0 1.94.239 3.886.239 3.886s.234 1.654.952 2.38c.914.957 2.114.924 2.648 1.027 1.922.183 8.161.24 8.161.24s5.044-.01 8.4-.249c.469-.056 1.491-.06 2.405-1.017.722-.727.956-2.381.956-2.381s.239-1.941.239-3.886v-1.819c0-1.94-.239-3.886-.239-3.886zm-14.241 7.913V8.367l6.483 3.385-6.483 3.36z" fill="#fff"/><defs><clipPath id="a"><path fill="#fff" d="M0 0H24V24H0z"/></clipPath><clipPath id="b"><path fill="#fff" transform="translate(39)" d="M0 0H24V24H0z"/></clipPath></defs></svg>