<svg width="30" height="31" fill="none" xmlns="http://www.w3.org/2000/svg"><g filter="url(#a)"><path d="M12.586 16.818c-.294-.64-1.497-1.574-1.796-1.709a3.692 3.692 0 00-2.266-.436 3.64 3.64 0 00-2.071.989 3.437 3.437 0 00-1.022 2.005c-.103.76.055 1.53.45 2.193a3.56 3.56 0 001.737 1.475c.73.293 1.54.345 2.304.147a3.602 3.602 0 001.921-1.242 3.407 3.407 0 00.743-2.117V5.91a1 1 0 01.78-.975L24.6 2.4v13.24m0 0v1.305c0 .765-.261 1.51-.743 2.117a3.601 3.601 0 01-1.92 1.242 3.703 3.703 0 01-2.305-.147 3.56 3.56 0 01-1.737-1.474 3.385 3.385 0 01-.45-2.193 3.437 3.437 0 011.022-2.006 3.64 3.64 0 012.071-.989c.784-.1 1.58.054 2.265.437.3.134 1.503 1.068 1.797 1.708z" stroke="#000" stroke-width="2" stroke-linecap="round" stroke-linejoin="round"/></g><defs><filter id="a" x="-1" y="0" width="32" height="32" filterUnits="userSpaceOnUse" color-interpolation-filters="sRGB"><feFlood flood-opacity="0" result="BackgroundImageFix"/><feColorMatrix in="SourceAlpha" values="0 0 0 0 0 0 0 0 0 0 0 0 0 0 0 0 0 0 127 0" result="hardAlpha"/><feOffset dy="4"/><feGaussianBlur stdDeviation="2"/><feComposite in2="hardAlpha" operator="out"/><feColorMatrix values="0 0 0 0 0 0 0 0 0 0 0 0 0 0 0 0 0 0 0.25 0"/><feBlend in2="BackgroundImageFix" result="effect1_dropShadow_3762_246"/><feBlend in="SourceGraphic" in2="effect1_dropShadow_3762_246" result="shape"/></filter></defs></svg>