<svg width="29" height="28" fill="none" xmlns="http://www.w3.org/2000/svg"><g filter="url(#a)"><path d="M14.106 8.833h-2.75m6.52 5.554l4.65 2.29c.481.294.987.12.974-.491l-.032-8.095c-.042-.664-.434-.846-1.011-.539l-4.595 2.089M7.25 18.5h8.356c1.242 0 2.25-.995 2.25-2.222l.02-2.85-.02-5.706c0-1.227-1.008-2.222-2.25-2.222H7.25C6.007 5.5 5 6.495 5 7.722v8.556C5 17.505 6.007 18.5 7.25 18.5z" stroke="#000" stroke-width="2" stroke-linecap="round" stroke-linejoin="round"/></g><defs><filter id="a" x="-2" y="0" width="32" height="32" filterUnits="userSpaceOnUse" color-interpolation-filters="sRGB"><feFlood flood-opacity="0" result="BackgroundImageFix"/><feColorMatrix in="SourceAlpha" values="0 0 0 0 0 0 0 0 0 0 0 0 0 0 0 0 0 0 127 0" result="hardAlpha"/><feOffset dy="4"/><feGaussianBlur stdDeviation="2"/><feComposite in2="hardAlpha" operator="out"/><feColorMatrix values="0 0 0 0 0 0 0 0 0 0 0 0 0 0 0 0 0 0 0.25 0"/><feBlend in2="BackgroundImageFix" result="effect1_dropShadow_3762_238"/><feBlend in="SourceGraphic" in2="effect1_dropShadow_3762_238" result="shape"/></filter></defs></svg>