<svg width="110" height="16" fill="none" xmlns="http://www.w3.org/2000/svg"><circle cx="8" cy="8" r="8" fill="#8FBB93"/><path d="M4.89 12l3.24-7.05h1.29L12.7 12h-1.58l-.85-1.96.61.43H6.69l.62-.43L6.46 12H4.89zm3.88-5.41L7.48 9.65l-.27-.38h3.15l-.23.38-1.32-3.06h-.04zm7.83 5.52c-.54 0-1.014-.107-1.42-.32a2.234 2.234 0 01-.94-.92c-.22-.4-.33-.873-.33-1.42 0-.553.11-1.023.33-1.41.226-.393.54-.693.94-.9.406-.207.88-.31 1.42-.31.34 0 .67.05.99.15.326.1.592.24.8.42l-.44 1.04a1.588 1.588 0 00-.58-.34c-.214-.08-.42-.12-.62-.12-.408 0-.724.127-.95.38-.228.253-.34.62-.34 1.1 0 .48.112.847.34 1.1.226.253.542.38.95.38.192 0 .396-.037.61-.11.22-.073.416-.183.59-.33l.44 1.03c-.214.18-.484.323-.81.43-.32.1-.648.15-.98.15zm3.647-.11V4.64h1.51v3.24h-.15c.16-.34.397-.6.71-.78.313-.18.673-.27 1.08-.27.593 0 1.037.173 1.33.52.293.34.44.863.44 1.57V12h-1.51V8.99c0-.353-.067-.607-.2-.76-.127-.153-.327-.23-.6-.23-.333 0-.6.103-.8.31-.2.207-.3.483-.3.83V12h-1.51zm9.683.11c-.88 0-1.567-.237-2.06-.71-.494-.473-.74-1.117-.74-1.93 0-.527.103-.987.31-1.38.213-.393.506-.7.88-.92.38-.227.823-.34 1.33-.34.5 0 .916.107 1.25.32.34.213.593.513.76.9.173.38.26.823.26 1.33v.35h-3.55v-.75h2.45l-.17.14c0-.42-.087-.737-.26-.95-.167-.22-.41-.33-.73-.33-.354 0-.627.13-.82.39-.187.26-.28.633-.28 1.12v.16c0 .493.12.86.36 1.1.246.24.6.36 1.06.36.273 0 .53-.033.77-.1a2.43 2.43 0 00.7-.34l.42 1a2.85 2.85 0 01-.88.43c-.327.1-.68.15-1.06.15zm6.288 0c-.66 0-1.156-.163-1.49-.49-.333-.333-.5-.83-.5-1.49V8.06h-.96V6.93h.96V5.69l1.51-.37v1.61h1.3v1.13h-1.3v1.99c0 .32.067.54.2.66.134.12.304.18.51.18.127 0 .23-.007.31-.02a2.43 2.43 0 00.27-.08v1.17c-.126.053-.26.09-.4.11-.14.027-.276.04-.41.04zm5.096 0c-.88 0-1.566-.237-2.06-.71-.493-.473-.74-1.117-.74-1.93 0-.527.104-.987.31-1.38.214-.393.507-.7.88-.92.38-.227.824-.34 1.33-.34.5 0 .917.107 1.25.32.34.213.594.513.76.9.174.38.26.823.26 1.33v.35h-3.55v-.75h2.45l-.17.14c0-.42-.086-.737-.26-.95-.166-.22-.41-.33-.73-.33-.353 0-.626.13-.82.39-.186.26-.28.633-.28 1.12v.16c0 .493.12.86.36 1.1.247.24.6.36 1.06.36.274 0 .53-.033.77-.1a2.43 2.43 0 00.7-.34l.42 1c-.253.187-.546.33-.88.43-.326.1-.68.15-1.06.15zm3.939-.11V8.27c0-.22-.007-.443-.02-.67a7.4 7.4 0 00-.05-.67h1.45l.17 1.48h-.23c.066-.36.173-.657.32-.89.153-.233.34-.407.56-.52.226-.113.483-.17.77-.17.126 0 .226.007.3.02a.874.874 0 01.22.05l-.01 1.33a1.77 1.77 0 00-.72-.14c-.28 0-.514.053-.7.16-.18.107-.317.263-.41.47-.087.207-.13.457-.13.75V12h-1.52zm8.943 0V4.64h1.51V12h-1.51zm6.294.11c-.88 0-1.566-.237-2.06-.71-.493-.473-.74-1.117-.74-1.93 0-.527.104-.987.31-1.38.214-.393.507-.7.88-.92.38-.227.824-.34 1.33-.34.5 0 .917.107 1.25.32.34.213.594.513.76.9.174.38.26.823.26 1.33v.35h-3.55v-.75h2.45l-.17.14c0-.42-.086-.737-.26-.95-.166-.22-.41-.33-.73-.33-.353 0-.626.13-.82.39-.186.26-.28.633-.28 1.12v.16c0 .493.12.86.36 1.1.247.24.6.36 1.06.36.274 0 .53-.033.77-.1a2.43 2.43 0 00.7-.34l.42 1c-.253.187-.546.33-.88.43-.326.1-.68.15-1.06.15zm7.77-.11V4.64h1.51V12h-1.51zm3.745 0V6.93h1.51V12h-1.51zm-.06-5.9V4.69h1.62V6.1h-1.62zm5.274 5.9l-2.19-5.07h1.59l1.45 3.68h-.33l1.5-3.68h1.49L78.519 12h-1.3zm5.028 0V8.27c0-.22-.007-.443-.02-.67a7.329 7.329 0 00-.05-.67h1.45l.17 1.48h-.23c.066-.36.173-.657.32-.89.153-.233.34-.407.56-.52.226-.113.483-.17.77-.17.126 0 .226.007.3.02a.872.872 0 01.22.05l-.01 1.33a1.77 1.77 0 00-.72-.14c-.28 0-.514.053-.7.16-.18.107-.317.263-.41.47-.087.207-.13.457-.13.75V12h-1.52zm7.583.11c-.88 0-1.567-.237-2.06-.71-.493-.473-.74-1.117-.74-1.93 0-.527.103-.987.31-1.38.213-.393.507-.7.88-.92.38-.227.823-.34 1.33-.34.5 0 .917.107 1.25.32.34.213.594.513.76.9.174.38.26.823.26 1.33v.35h-3.55v-.75h2.45l-.17.14c0-.42-.087-.737-.26-.95-.166-.22-.41-.33-.73-.33-.353 0-.627.13-.82.39-.186.26-.28.633-.28 1.12v.16c0 .493.12.86.36 1.1.247.24.6.36 1.06.36.273 0 .53-.033.77-.1a2.43 2.43 0 00.7-.34l.42 1a2.85 2.85 0 01-.88.43c-.326.1-.68.15-1.06.15zM108.75 8a.413.413 0 01-.044.17.36.36 0 01-.05.055.55.55 0 01-.056.073l-3.75 3.208a.765.765 0 01-.589.153c-.22-.03-.401-.144-.475-.298-.075-.154-.031-.326.114-.45l2.869-2.453h-9.894c-.345 0-.625-.205-.625-.458s.28-.458.625-.458h9.894L103.9 5.09c-.145-.125-.189-.297-.114-.451.074-.154.255-.268.475-.298a.765.765 0 01.589.153l3.75 3.208a.55.55 0 01.056.073.36.36 0 01.05.055.413.413 0 01.044.17z" fill="#1D1513"/></svg>