<svg width="132" height="16" fill="none" xmlns="http://www.w3.org/2000/svg"><circle cx="8" cy="8" r="8" fill="#8FBB93"/><path d="M5.72 12V4.95h4.9v1.21H7.21v1.65h3.17v1.22H7.21v1.76h3.41V12h-4.9zm2.11-7.65L9.02 2.6h1.53L8.89 4.35H7.83zm7.197 7.76c-.54 0-1.013-.107-1.42-.32a2.234 2.234 0 01-.94-.92c-.22-.4-.33-.873-.33-1.42 0-.553.11-1.023.33-1.41.226-.393.54-.693.94-.9.407-.207.88-.31 1.42-.31.34 0 .67.05.99.15.326.1.593.24.8.42l-.44 1.04a1.588 1.588 0 00-.58-.34c-.213-.08-.42-.12-.62-.12-.407 0-.723.127-.95.38-.227.253-.34.62-.34 1.1 0 .48.113.847.34 1.1.226.253.543.38.95.38.193 0 .396-.037.61-.11a1.77 1.77 0 00.59-.33l.44 1.03c-.213.18-.483.323-.81.43-.32.1-.647.15-.98.15zm5.95 0c-.54 0-1.01-.107-1.41-.32-.393-.22-.7-.527-.92-.92-.213-.393-.32-.863-.32-1.41 0-.54.107-1.007.32-1.4a2.28 2.28 0 01.92-.91c.4-.213.87-.32 1.41-.32.54 0 1.01.107 1.41.32.4.213.707.517.92.91.22.393.33.86.33 1.4 0 .547-.11 1.017-.33 1.41-.213.393-.52.7-.92.92-.4.213-.87.32-1.41.32zm0-1.14c.347 0 .62-.123.82-.37.207-.247.31-.627.31-1.14 0-.513-.103-.89-.31-1.13-.2-.24-.473-.36-.82-.36s-.623.12-.83.36c-.2.24-.3.617-.3 1.13 0 .513.1.893.3 1.14.207.247.483.37.83.37zm6.475 1.14c-.633 0-1.103-.173-1.41-.52-.307-.353-.46-.887-.46-1.6V6.93h1.51v3.06c0 .32.064.557.19.71.134.153.337.23.61.23.3 0 .547-.103.74-.31.2-.213.3-.497.3-.85V6.93h1.51V12h-1.47v-.97h.14c-.153.34-.373.607-.66.8-.28.187-.613.28-1 .28zm7.604 0c-.66 0-1.156-.163-1.49-.49-.333-.333-.5-.83-.5-1.49V8.06h-.96V6.93h.96V5.69l1.51-.37v1.61h1.3v1.13h-1.3v1.99c0 .32.067.54.2.66.134.12.304.18.51.18.127 0 .23-.007.31-.02a2.43 2.43 0 00.27-.08v1.17c-.126.053-.26.09-.4.11-.14.027-.276.04-.41.04zm5.096 0c-.88 0-1.566-.237-2.06-.71-.493-.473-.74-1.117-.74-1.93 0-.527.104-.987.31-1.38.214-.393.507-.7.88-.92.38-.227.824-.34 1.33-.34.5 0 .917.107 1.25.32.34.213.594.513.76.9.174.38.26.823.26 1.33v.35h-3.55v-.75h2.45l-.17.14c0-.42-.086-.737-.26-.95-.166-.22-.41-.33-.73-.33-.353 0-.626.13-.82.39-.186.26-.28.633-.28 1.12v.16c0 .493.12.86.36 1.1.247.24.6.36 1.06.36.274 0 .53-.033.77-.1a2.43 2.43 0 00.7-.34l.42 1c-.253.187-.546.33-.88.43-.326.1-.68.15-1.06.15zM44.09 12V8.27c0-.22-.006-.443-.02-.67a7.4 7.4 0 00-.05-.67h1.45l.17 1.48h-.23c.067-.36.174-.657.32-.89.154-.233.34-.407.56-.52.227-.113.484-.17.77-.17.127 0 .227.007.3.02a.874.874 0 01.22.05l-.01 1.33a1.77 1.77 0 00-.72-.14c-.28 0-.513.053-.7.16-.18.107-.316.263-.41.47-.086.207-.13.457-.13.75V12h-1.52zm8.944 0V4.64h1.51V12h-1.51zm5.714.11c-.44 0-.826-.107-1.16-.32a2.138 2.138 0 01-.78-.91c-.187-.393-.28-.867-.28-1.42 0-.547.093-1.017.28-1.41.187-.393.447-.693.78-.9.334-.213.72-.32 1.16-.32.407 0 .77.1 1.09.3.327.193.54.457.64.79h-.11l.12-.99h1.45l-.06.67c-.013.22-.02.437-.02.65V12h-1.5l-.01-.95h.12c-.107.32-.32.577-.64.77-.32.193-.68.29-1.08.29zm.46-1.14c.347 0 .627-.123.84-.37.213-.247.32-.627.32-1.14 0-.513-.107-.89-.32-1.13-.213-.24-.493-.36-.84-.36-.346 0-.627.12-.84.36-.213.24-.32.617-.32 1.13 0 .513.103.893.31 1.14.214.247.497.37.85.37zm8.71 1.03V8.25a10.69 10.69 0 00-.08-1.32h1.45l.11.94h-.12c.147-.32.364-.573.65-.76.288-.187.627-.28 1.02-.28.388 0 .71.093.97.28.267.18.457.463.57.85h-.16c.147-.347.38-.62.7-.82.32-.207.684-.31 1.09-.31.574 0 1 .17 1.28.51.28.34.42.873.42 1.6V12h-1.51V8.99c0-.353-.056-.607-.17-.76-.113-.153-.296-.23-.55-.23-.3 0-.536.107-.71.32-.172.213-.26.507-.26.88V12h-1.51V8.99c0-.353-.056-.607-.17-.76-.112-.153-.296-.23-.55-.23-.3 0-.536.107-.71.32-.166.213-.25.507-.25.88V12h-1.51zm11.952.11c-.633 0-1.103-.173-1.41-.52-.306-.353-.46-.887-.46-1.6V6.93h1.51v3.06c0 .32.063.557.19.71.133.153.337.23.61.23.3 0 .547-.103.74-.31.2-.213.3-.497.3-.85V6.93h1.51V12h-1.47v-.97h.14c-.153.34-.373.607-.66.8-.28.187-.613.28-1 .28zm7.104 0c-.453 0-.866-.05-1.24-.15-.373-.1-.69-.24-.95-.42l.39-1c.26.16.547.287.86.38.32.093.637.14.95.14.294 0 .51-.047.65-.14.14-.093.21-.22.21-.38a.372.372 0 00-.14-.31c-.086-.073-.223-.127-.41-.16l-1.03-.19c-.433-.087-.763-.247-.99-.48-.226-.233-.34-.537-.34-.91 0-.327.087-.613.26-.86.18-.253.437-.45.77-.59.334-.14.724-.21 1.17-.21.38 0 .74.047 1.08.14.34.093.63.237.87.43l-.41.97a2.62 2.62 0 00-.72-.37 2.328 2.328 0 00-.77-.14c-.32 0-.55.053-.69.16a.46.46 0 00-.21.39c0 .12.04.22.12.3a.85.85 0 00.39.18l1.04.19c.447.08.787.23 1.02.45.234.22.35.523.35.91 0 .353-.093.653-.28.9-.186.247-.45.437-.79.57-.333.133-.72.2-1.16.2zm4.17-.11V6.93h1.51V12h-1.51zm-.06-5.9V4.69h1.62V6.1h-1.62zm7.374 8.06v-3.11h.12c-.107.32-.32.577-.64.77-.32.193-.68.29-1.08.29-.44 0-.827-.107-1.16-.32a2.136 2.136 0 01-.78-.91c-.187-.393-.28-.867-.28-1.42 0-.547.093-1.017.28-1.41a2.07 2.07 0 01.78-.9c.333-.213.72-.32 1.16-.32.406 0 .77.1 1.09.3.326.193.54.457.64.79h-.11l.12-.99h1.45l-.06.67c-.014.22-.02.437-.02.65v5.91h-1.51zm-1.14-3.19c.346 0 .626-.123.84-.37.213-.247.32-.627.32-1.14 0-.513-.107-.89-.32-1.13-.214-.24-.494-.36-.84-.36-.347 0-.627.12-.84.36-.214.24-.32.617-.32 1.13 0 .513.103.893.31 1.14.213.247.496.37.85.37zm6.728 1.14c-.633 0-1.103-.173-1.41-.52-.307-.353-.46-.887-.46-1.6V6.93h1.51v3.06c0 .32.063.557.19.71.133.153.337.23.61.23.3 0 .547-.103.74-.31.2-.213.3-.497.3-.85V6.93h1.51V12h-1.47v-.97h.14c-.153.34-.373.607-.66.8-.28.187-.613.28-1 .28zm7.784 0c-.88 0-1.567-.237-2.06-.71-.493-.473-.74-1.117-.74-1.93 0-.527.103-.987.31-1.38.213-.393.507-.7.88-.92.38-.227.823-.34 1.33-.34.5 0 .917.107 1.25.32.34.213.593.513.76.9.173.38.26.823.26 1.33v.35h-3.55v-.75h2.45l-.17.14c0-.42-.087-.737-.26-.95-.167-.22-.41-.33-.73-.33-.353 0-.627.13-.82.39-.187.26-.28.633-.28 1.12v.16c0 .493.12.86.36 1.1.247.24.6.36 1.06.36.273 0 .53-.033.77-.1.247-.073.48-.187.7-.34l.42 1c-.253.187-.547.33-.88.43-.327.1-.68.15-1.06.15zM130.75 8a.413.413 0 01-.044.17.36.36 0 01-.05.055.55.55 0 01-.056.073l-3.75 3.208a.765.765 0 01-.589.153c-.22-.03-.401-.144-.475-.298-.075-.154-.031-.326.114-.45l2.869-2.453h-9.894c-.345 0-.625-.205-.625-.458s.28-.458.625-.458h9.894L125.9 5.09c-.145-.125-.189-.297-.114-.451.074-.154.255-.268.475-.298a.765.765 0 01.589.153l3.75 3.208a.55.55 0 01.056.073.36.36 0 01.05.055.413.413 0 01.044.17z" fill="#1D1513"/></svg>