<svg width="100" height="36" fill="none" xmlns="http://www.w3.org/2000/svg"><rect x=".5" y=".5" width="99" height="35" rx="9.5" fill="#FAFAFA"/><rect x=".5" y=".5" width="99" height="35" rx="9.5" stroke="url(#a)"/><path d="M16.72 22v-7.05h3.29c.793 0 1.393.193 1.8.58.413.38.62.903.62 1.57 0 .66-.207 1.187-.62 1.58-.407.387-1.007.58-1.8.58h-1.73V22h-1.56zm1.56-3.95h1.53c.373 0 .65-.083.83-.25.187-.167.28-.4.28-.7 0-.3-.093-.53-.28-.69-.18-.167-.457-.25-.83-.25h-1.53v1.89zM24.368 22v-7.36h1.51V22h-1.51zm5.584.11c-.633 0-1.103-.173-1.41-.52-.307-.353-.46-.887-.46-1.6v-3.06h1.51v3.06c0 .32.064.557.19.71.134.153.337.23.61.23.3 0 .547-.103.74-.31.2-.213.3-.497.3-.85v-2.84h1.51V22h-1.47v-.97h.14c-.153.34-.373.607-.66.8-.28.187-.613.28-1 .28zm7.104 0c-.453 0-.866-.05-1.24-.15-.373-.1-.69-.24-.95-.42l.39-1c.26.16.547.287.86.38.32.093.637.14.95.14.294 0 .51-.047.65-.14.14-.093.21-.22.21-.38a.372.372 0 00-.14-.31c-.086-.073-.223-.127-.41-.16l-1.03-.19c-.433-.087-.763-.247-.99-.48-.226-.233-.34-.537-.34-.91 0-.327.087-.613.26-.86.18-.253.437-.45.77-.59.334-.14.724-.21 1.17-.21.38 0 .74.047 1.08.14.34.093.63.237.87.43l-.41.97a2.62 2.62 0 00-.72-.37 2.328 2.328 0 00-.77-.14c-.32 0-.55.053-.69.16a.46.46 0 00-.21.39c0 .12.04.22.12.3.087.08.217.14.39.18l1.04.19c.447.08.787.23 1.02.45.234.22.35.523.35.91 0 .353-.093.653-.28.9-.186.247-.45.437-.79.57-.333.133-.72.2-1.16.2zm9.982 0c-.44 0-.83-.107-1.17-.32a2.205 2.205 0 01-.79-.91c-.187-.393-.28-.867-.28-1.42 0-.547.093-1.017.28-1.41a2.05 2.05 0 01.79-.9c.34-.213.73-.32 1.17-.32.4 0 .756.097 1.07.29.32.187.533.44.64.76h-.13v-3.24h1.51V22h-1.49v-.99h.13c-.107.333-.32.6-.64.8-.32.2-.684.3-1.09.3zm.45-1.14c.346 0 .626-.123.84-.37.213-.247.32-.627.32-1.14 0-.513-.107-.89-.32-1.13-.214-.24-.494-.36-.84-.36a1.1 1.1 0 00-.85.36c-.214.24-.32.617-.32 1.13 0 .513.106.893.32 1.14.22.247.503.37.85.37zm5.478-2.98l-.59-.47c.233-.24.397-.463.49-.67.1-.207.15-.427.15-.66l.35.36h-1.13v-1.6h1.63v1.03c0 .38-.067.727-.2 1.04-.133.313-.367.637-.7.97zM55.964 22v-5.07h1.51V22h-1.51zm-.06-5.9v-1.41h1.62v1.41h-1.62zm3.804 5.9v-3.75a10.773 10.773 0 00-.08-1.32h1.45l.11.94h-.12c.167-.333.403-.59.71-.77.307-.18.663-.27 1.07-.27.593 0 1.037.173 1.33.52.3.34.45.87.45 1.59V22h-1.51v-2.99c0-.367-.067-.627-.2-.78-.133-.153-.333-.23-.6-.23-.333 0-.6.107-.8.32-.2.207-.3.487-.3.84V22h-1.51zm7.513 0v-3.94h-.96v-1.13h1.39l-.43.39v-.73c0-.66.17-1.157.51-1.49.346-.333.863-.5 1.55-.5.153 0 .316.01.49.03.18.02.336.06.47.12v1.16a1.418 1.418 0 00-.32-.07c-.12-.02-.237-.03-.35-.03-.154 0-.297.027-.43.08a.67.67 0 00-.31.27c-.074.12-.11.283-.11.49v.53l-.21-.25H70v1.13h-1.27V22h-1.51zm6.76.11c-.54 0-1.01-.107-1.41-.32-.393-.22-.7-.527-.92-.92-.213-.393-.32-.863-.32-1.41 0-.54.107-1.007.32-1.4a2.28 2.28 0 01.92-.91c.4-.213.87-.32 1.41-.32.54 0 1.01.107 1.41.32.4.213.707.517.92.91.22.393.33.86.33 1.4 0 .547-.11 1.017-.33 1.41-.213.393-.52.7-.92.92-.4.213-.87.32-1.41.32zm0-1.14c.347 0 .62-.123.82-.37.207-.247.31-.627.31-1.14 0-.513-.103-.89-.31-1.13-.2-.24-.473-.36-.82-.36s-.623.12-.83.36c-.2.24-.3.617-.3 1.13 0 .513.1.893.3 1.14.207.247.483.37.83.37zm6.505 1.14c-.453 0-.867-.05-1.24-.15-.373-.1-.69-.24-.95-.42l.39-1c.26.16.547.287.86.38.32.093.637.14.95.14.293 0 .51-.047.65-.14.14-.093.21-.22.21-.38a.372.372 0 00-.14-.31c-.087-.073-.223-.127-.41-.16l-1.03-.19c-.433-.087-.763-.247-.99-.48-.227-.233-.34-.537-.34-.91 0-.327.087-.613.26-.86.18-.253.437-.45.77-.59.333-.14.723-.21 1.17-.21.38 0 .74.047 1.08.14.34.093.63.237.87.43l-.41.97a2.62 2.62 0 00-.72-.37 2.328 2.328 0 00-.77-.14c-.32 0-.55.053-.69.16a.46.46 0 00-.21.39c0 .12.04.22.12.3.087.08.217.14.39.18l1.04.19c.447.08.787.23 1.02.45.233.22.35.523.35.91 0 .353-.093.653-.28.9-.187.247-.45.437-.79.57-.333.133-.72.2-1.16.2z" fill="#1D1513"/><defs><linearGradient id="a" x1="3.571" y1="2.571" x2="84.331" y2="51.752" gradientUnits="userSpaceOnUse"><stop stop-color="#8FBB93"/><stop offset="1" stop-color="#08678C"/></linearGradient></defs></svg>