<svg width="90" height="16" fill="none" xmlns="http://www.w3.org/2000/svg"><circle cx="8" cy="8" r="8" fill="#8FBB93"/><path d="M5.72 12V4.95h3.29c.793 0 1.393.193 1.8.58.413.38.62.903.62 1.57 0 .66-.207 1.187-.62 1.58-.407.387-1.007.58-1.8.58H7.28V12H5.72zm1.56-3.95h1.53c.373 0 .65-.083.83-.25.187-.167.28-.4.28-.7 0-.3-.093-.53-.28-.69-.18-.167-.457-.25-.83-.25H7.28v1.89zM13.368 12V4.64h1.51V12h-1.51zm5.584.11c-.633 0-1.103-.173-1.41-.52-.307-.353-.46-.887-.46-1.6V6.93h1.51v3.06c0 .32.064.557.19.71.134.153.337.23.61.23.3 0 .547-.103.74-.31.2-.213.3-.497.3-.85V6.93h1.51V12h-1.47v-.97h.14c-.153.34-.373.607-.66.8-.28.187-.613.28-1 .28zm7.104 0c-.453 0-.866-.05-1.24-.15-.373-.1-.69-.24-.95-.42l.39-1c.26.16.547.287.86.38.32.093.637.14.95.14.294 0 .51-.047.65-.14.14-.093.21-.22.21-.38a.372.372 0 00-.14-.31c-.086-.073-.223-.127-.41-.16l-1.03-.19c-.433-.087-.763-.247-.99-.48-.226-.233-.34-.537-.34-.91 0-.327.087-.613.26-.86.18-.253.437-.45.77-.59.334-.14.724-.21 1.17-.21.38 0 .74.047 1.08.14.34.093.63.237.87.43l-.41.97a2.62 2.62 0 00-.72-.37 2.327 2.327 0 00-.77-.14c-.32 0-.55.053-.69.16a.46.46 0 00-.21.39c0 .12.04.22.12.3.087.08.217.14.39.18l1.04.19c.447.08.787.23 1.02.45.234.22.35.523.35.91 0 .353-.093.653-.28.9-.186.247-.45.437-.79.57-.333.133-.72.2-1.16.2zm9.982 0c-.44 0-.83-.107-1.17-.32a2.205 2.205 0 01-.79-.91c-.187-.393-.28-.867-.28-1.42 0-.547.093-1.017.28-1.41a2.05 2.05 0 01.79-.9c.34-.213.73-.32 1.17-.32.4 0 .756.097 1.07.29.32.187.533.44.64.76h-.13V4.64h1.51V12h-1.49v-.99h.13c-.107.333-.32.6-.64.8-.32.2-.684.3-1.09.3zm.45-1.14c.346 0 .626-.123.84-.37.213-.247.32-.627.32-1.14 0-.513-.107-.89-.32-1.13-.214-.24-.494-.36-.84-.36a1.1 1.1 0 00-.85.36c-.214.24-.32.617-.32 1.13 0 .513.106.893.32 1.14.22.247.503.37.85.37zm5.478-2.98l-.59-.47c.233-.24.397-.463.49-.67.1-.207.15-.427.15-.66l.35.36h-1.13v-1.6h1.63v1.03c0 .38-.067.727-.2 1.04-.133.313-.367.637-.7.97zM44.964 12V6.93h1.51V12h-1.51zm-.06-5.9V4.69h1.62V6.1h-1.62zm3.804 5.9V8.25a10.772 10.772 0 00-.08-1.32h1.45l.11.94h-.12c.167-.333.403-.59.71-.77.307-.18.663-.27 1.07-.27.593 0 1.037.173 1.33.52.3.34.45.87.45 1.59V12h-1.51V9.01c0-.367-.067-.627-.2-.78-.133-.153-.333-.23-.6-.23-.333 0-.6.107-.8.32-.2.207-.3.487-.3.84V12h-1.51zm7.513 0V8.06h-.96V6.93h1.39l-.43.39v-.73c0-.66.17-1.157.51-1.49.346-.333.863-.5 1.55-.5.153 0 .316.01.49.03.18.02.336.06.47.12v1.16a1.418 1.418 0 00-.32-.07c-.12-.02-.237-.03-.35-.03-.154 0-.297.027-.43.08a.671.671 0 00-.31.27c-.074.12-.11.283-.11.49v.53l-.21-.25H59v1.13h-1.27V12h-1.51zm6.76.11c-.54 0-1.01-.107-1.41-.32-.393-.22-.7-.527-.92-.92-.213-.393-.32-.863-.32-1.41 0-.54.107-1.007.32-1.4a2.28 2.28 0 01.92-.91c.4-.213.87-.32 1.41-.32.54 0 1.01.107 1.41.32.4.213.707.517.92.91.22.393.33.86.33 1.4 0 .547-.11 1.017-.33 1.41-.213.393-.52.7-.92.92-.4.213-.87.32-1.41.32zm0-1.14c.347 0 .62-.123.82-.37.207-.247.31-.627.31-1.14 0-.513-.103-.89-.31-1.13-.2-.24-.473-.36-.82-.36s-.623.12-.83.36c-.2.24-.3.617-.3 1.13 0 .513.1.893.3 1.14.207.247.483.37.83.37zm6.505 1.14c-.453 0-.867-.05-1.24-.15-.373-.1-.69-.24-.95-.42l.39-1c.26.16.547.287.86.38.32.093.637.14.95.14.293 0 .51-.047.65-.14.14-.093.21-.22.21-.38a.372.372 0 00-.14-.31c-.087-.073-.223-.127-.41-.16l-1.03-.19c-.433-.087-.763-.247-.99-.48-.227-.233-.34-.537-.34-.91 0-.327.087-.613.26-.86.18-.253.437-.45.77-.59.333-.14.723-.21 1.17-.21.38 0 .74.047 1.08.14.34.093.63.237.87.43l-.41.97a2.62 2.62 0 00-.72-.37 2.327 2.327 0 00-.77-.14c-.32 0-.55.053-.69.16a.46.46 0 00-.21.39c0 .12.04.22.12.3.087.08.217.14.39.18l1.04.19c.447.08.787.23 1.02.45.233.22.35.523.35.91 0 .353-.093.653-.28.9-.187.247-.45.437-.79.57-.333.133-.72.2-1.16.2zM88.75 8a.41.41 0 01-.044.17.395.395 0 01-.05.055.57.57 0 01-.056.073l-3.75 3.208a.766.766 0 01-.59.153c-.219-.03-.4-.144-.474-.298-.075-.154-.031-.326.114-.45l2.869-2.453h-9.894c-.345 0-.625-.205-.625-.458s.28-.458.625-.458h9.894L83.9 5.09c-.145-.125-.189-.297-.114-.451.074-.154.255-.268.475-.298.22-.03.444.028.589.153l3.75 3.208a.57.57 0 01.056.073.394.394 0 01.05.055.41.41 0 01.044.17z" fill="#FAFAFA"/></svg>